<svg width="906" height="944" viewBox="0 0 906 944" fill="none" xmlns="http://www.w3.org/2000/svg">
<g clip-path="url(#clip0_180_36)">
<path d="M896.048 84.2865C871.195 83.2747 846.304 93.4959 824.337 108.749C802.378 124.094 783.182 144.688 770.213 166.285C763.732 177.13 758.808 188.201 756.022 199.226C753.256 210.235 752.617 221.271 755.284 231.709C757.922 242.106 764.223 251.73 773.863 258.505C783.494 265.311 795.99 269.456 811.443 271.064C828.497 272.864 844.717 269.656 859.162 262.787C873.627 255.939 886.356 245.562 897.377 233.036C919.399 207.958 934.888 174.242 943.334 139.773C951.714 105.26 953.14 70.0585 945.353 41.2397C941.416 26.863 935.068 13.9353 925.492 3.91082C915.984 -6.09974 902.972 -12.8379 887.857 -14.342C872.882 -15.9179 858.29 -12.4384 845.092 -5.63071C831.873 1.19229 819.849 11.2992 809.026 23.4847C787.413 47.8973 770.391 80.8202 759.78 115.257C749.244 149.702 745.073 185.599 750.65 216.526C753.485 231.987 758.821 246.289 767.568 258.228C776.243 270.158 788.508 279.53 803.746 284.44C819.522 289.593 835.392 290.243 850.272 287.195C865.169 284.165 879.074 277.57 891.603 268.609C916.7 250.621 936.647 223.246 949.732 192.983C962.749 162.671 968.945 129.304 964.894 98.5937C962.834 83.2667 958.154 68.5379 950.175 55.5046C942.247 42.4974 930.935 31.2473 916.411 23.1795C891.226 9.13954 865.814 3.13839 841.59 4.05192C817.377 4.92442 794.519 12.5873 773.908 24.8497C732.7 49.4288 700.04 91.8288 678.867 138.71C657.829 185.684 648.166 237.254 655.497 281.765C659.214 303.982 667.334 324.553 681.045 341.261C694.7 357.98 714.027 370.382 738.104 376.154C765.372 382.771 791.785 381.803 816.048 374.807C840.325 367.831 862.418 354.912 881.815 338.05C920.609 304.272 948.927 254.822 963.837 201.654C978.636 148.47 980.097 91.3543 962.931 41.8384C954.352 17.11 940.963 -5.69997 922.213 -24.5925C903.503 -43.4822 879.415 -58.3445 850.126 -67.401C820.382 -76.6342 792.102 -77.6379 766.432 -71.7882C740.752 -65.995 717.823 -53.4538 698.242 -36.4899C659.089 -2.50352 632.708 48.6663 619.808 103.308C606.992 158.018 607.615 216.49 624.947 266.01C633.655 290.739 646.642 313.268 664.524 331.481C682.393 349.676 705.234 363.396 732.535 370.317C764.448 378.509 796.31 376.601 826.202 367.135C856.097 357.671 884.122 340.824 909.544 319.034C960.374 275.429 1001.25 212.172 1025.89 145.143C1050.4 78.078 1058.94 7.14379 1042.12 -52.6343C1033.68 -82.4908 1018.61 -109.578 995.802 -130.775C973.041 -152.005 942.779 -167.07 905.368 -173.865C850.036 -184.013 795.948 -173.557 746.776 -149.102C697.524 -124.619 652.867 -86.35 614.574 -40.022C538.126 52.66 486.706 177.505 478.799 292.821C475.818 337.055 479.656 379.971 491.496 418.871C503.34 457.734 523.311 492.615 552.2 520.076C581.045 547.565 618.649 567.463 664.863 577.282C711.13 587.128 766.02 587.084 830.585 575.224C832.582 574.864 833.34 572.286 833.089 570.567C832.82 568.825 831.342 566.592 829.326 566.841C764.944 574.318 711.975 570.658 669.355 558.893C626.667 547.08 594.342 527.312 570.102 502.037C545.883 476.746 529.613 445.768 519.901 410.618C510.225 375.472 507.256 336.179 510.011 294.931C517.162 187.34 566.442 67.0761 638.629 -20.1804C674.636 -63.8572 716.27 -99.2476 760.592 -121.269C804.989 -143.281 851.735 -152.124 899.835 -143.425C932.35 -137.497 956.596 -125.052 974.801 -108.181C992.966 -91.2789 1005.28 -69.6421 1012.56 -44.2308C1027.14 6.44916 1020.22 72.0616 997.266 134.647C974.445 197.273 935.793 256.791 889.908 296.141C866.984 315.867 842.346 330.532 817.124 338.538C791.889 346.527 766.158 348.017 739.891 341.395C717.774 335.776 700.078 325.163 685.701 310.636C671.345 296.095 660.383 277.523 652.819 256.18C637.648 213.525 636.602 159.936 648.275 109.969C659.854 60.0071 684.137 13.9061 717.164 -14.6822C733.681 -28.9956 752.237 -39.0708 772.821 -43.8002C793.401 -48.494 816.19 -47.9437 841.731 -40.1283C866.878 -32.4069 886.618 -20.15 902.125 -4.6261C917.616 10.9103 928.88 29.8391 936.36 51.1165C951.319 93.5737 950.6 145.538 937.09 194.224C923.679 242.904 897.546 288.092 863.868 317.456C847.035 332.167 828.433 342.957 808.511 348.745C788.554 354.527 767.314 355.44 744.416 349.989C725.428 345.391 711.873 336.502 701.691 324.247C691.557 312.013 684.87 296.036 681.685 277.341C675.246 240.031 683.444 192.473 702.738 149.396C721.929 106.266 752.084 67.7493 787.073 46.9214C804.576 36.4359 823.158 30.2915 842.565 29.5203C861.984 28.7723 882.443 33.301 904.147 45.2861C914.92 51.2399 922.86 59.1215 928.749 68.6686C934.643 78.1799 938.391 89.4598 940.099 101.945C943.575 126.865 938.503 156.411 927.022 183.244C915.594 210.099 897.789 234.15 877.396 248.777C867.193 256.126 856.417 261.154 845.424 263.427C834.383 265.673 823.086 265.293 811.17 261.489C800.701 258.061 793.017 252.255 786.92 244.027C780.824 235.801 776.507 224.978 774.137 212.214C769.322 186.674 772.659 153.767 782.311 122.121C791.892 90.4626 807.726 60.0158 826.408 38.8678C835.726 28.2626 845.722 20.0315 855.707 14.8528C865.708 9.66154 875.541 7.47945 885.531 8.45011C895.524 9.51535 902.773 13.3159 909.057 19.7173C915.285 26.1277 920.25 35.5257 923.492 47.2491C930.032 70.6874 929.254 102.942 921.614 134.508C914.057 166.107 899.711 197.023 880.847 218.533C871.43 229.311 860.947 237.714 849.773 243.072C838.566 248.386 826.709 250.758 813.635 249.474C800.799 248.204 791.999 244.886 786.335 240.869C780.678 236.818 777.707 232.244 776.077 226.306C774.522 220.381 774.65 212.899 776.776 204.409C778.862 195.949 782.889 186.585 788.458 177.201C799.64 158.399 817.014 139.526 836.386 125.956C855.732 112.31 876.93 104.206 895.161 105.028C900.884 105.276 905.746 100.825 905.977 95.0823C906.204 89.3746 901.771 84.5338 896.048 84.2865Z" fill="#895A39"/>
</g>
<path d="M236.713 608.479C253.455 599.579 272.339 586.893 289.752 571.805C307.145 556.687 323.08 539.248 333.581 520.262C338.809 510.756 342.689 500.808 344.389 490.416C346.096 480.081 345.515 469.247 341.825 458.884C338.162 448.492 331.477 438.792 321.972 430.253C312.452 421.686 300.135 414.17 284.653 407.592C257.219 395.902 229.241 393.718 202.744 398.527C176.215 403.336 151.133 414.942 128.316 430.557C82.7082 461.841 45.7927 508.961 23.9642 553.897C3.39524 596.318 -1.46285 633.903 6.93692 665.794C15.277 697.712 36.5409 722.336 63.4119 739.831C90.3697 757.434 123.203 768.543 157.47 774.568C191.75 780.593 227.496 781.478 260.45 777.859C307.899 772.581 356.997 755.555 398.995 727.532C440.913 699.564 475.93 660.238 493.194 610.357C508.665 565.724 510.558 524.907 501.266 489.311C492.025 453.689 471.78 423.842 445.29 400.462C418.763 377.027 386.019 359.755 350.568 348.175C315.105 336.596 276.883 330.68 239.057 330.432C201.233 330.183 163.796 335.545 129.882 346.931C95.9984 358.345 65.4934 375.782 42.2674 400.268C19.044 424.643 3.49826 456.507 0.558902 493.816C-2.4617 531.151 6.68454 573.326 29.8699 620.001C58.7087 678.205 102.433 718.468 151.654 741.627C200.901 764.813 255.439 771.253 307.05 763.432C358.663 755.585 407.571 733.501 445.589 698.709C483.582 663.998 510.489 616.077 516.622 558.732C520.239 525.543 516.843 489.311 505.168 451.035C492.304 408.89 475.812 374.346 456.444 346.765C437.091 319.212 414.789 298.622 390.664 284.722C366.554 270.793 340.717 263.636 314.682 262.254C288.624 260.872 262.373 265.183 236.794 273.889C185.63 291.354 136.95 326.341 96.327 371.029C55.7259 415.744 23.2369 470.27 5.07788 527.145C4.21195 529.88 8.81755 531.567 9.857 528.913C31.3111 474.14 66.4597 423.26 108.062 382.774C149.64 342.287 197.726 312.358 244.434 299.204C267.789 292.599 290.751 290.166 312.501 292.377C334.268 294.588 354.836 301.359 374.033 313.436C393.223 325.541 411.142 343.062 427.238 367.437C443.325 391.784 457.512 423.04 468.876 462.256C478.713 496.22 481.245 526.923 478.295 554.448C473.11 601.844 451.561 640.37 419.842 669.58C388.152 698.709 346.096 718.026 301.375 724.88C256.652 731.76 209.488 726.207 167.549 706.556C125.589 686.852 88.6465 653.358 63.2219 602.756C42.1425 560.696 35.1676 525.543 37.3795 496.856C39.6699 468.142 50.7025 445.259 68.6146 426.052C86.5213 406.928 111.707 391.895 141.27 381.808C170.801 371.693 204.571 366.553 238.916 366.608C273.259 366.636 308.17 371.831 340.004 382.029C371.858 392.199 400.578 407.371 422.892 426.882C445.244 446.421 461.21 470.021 468.761 498.182C476.258 526.343 475.518 559.673 462.137 599.356C448.096 640.95 418.645 675.218 381.424 700.478C344.28 725.739 299.568 741.683 257.016 746.685C227.01 750.248 193.791 749.724 162.458 744.476C131.114 739.251 101.687 729.273 79.1041 714.738C56.4341 700.118 40.8751 681.63 34.4729 658.193C28.1303 634.758 30.6081 604.801 48.819 566.249C68.0909 525.405 102.455 480.965 143.083 452.721C163.386 438.571 185.163 428.429 207.331 424.228C229.534 420.055 252.09 421.576 275.127 431.083C288.762 436.748 298.751 442.91 305.727 449.1C312.717 455.291 316.714 461.371 318.927 467.396C321.108 473.42 321.595 479.611 320.553 486.492C319.505 493.318 316.823 500.78 312.682 508.435C304.44 523.802 290.385 539.802 274.54 553.759C258.712 567.77 241.104 579.819 226.104 587.916C221.194 590.597 221.256 597.976 223.541 602.424C225.826 606.846 231.784 611.075 236.713 608.479Z" fill="#A1704C"/>
<path d="M572.841 604.403C565.919 605.253 560.312 607.324 555.93 610.321C551.549 613.313 548.421 617.242 546.481 621.624C542.595 630.419 543.353 640.828 547.058 649.924C548.922 654.474 551.533 658.714 554.77 662.294C558.007 665.869 561.876 668.79 566.274 670.594C570.655 672.398 575.598 673.041 580.672 672.027C585.745 671.019 590.873 668.387 595.772 663.984C601.434 658.899 605.278 652.763 607.474 646.376C609.663 639.989 610.236 633.357 609.435 627.15C608.628 620.943 606.464 615.139 603.048 610.397C599.647 605.673 594.906 601.983 589.141 600.441C584.497 599.166 579.238 599.433 574.05 601.504C568.851 603.564 563.702 607.335 558.808 612.937C555.009 617.313 551.642 621.771 547.859 625.956C547.009 626.899 548.35 628.408 549.385 627.673C554.088 624.327 558.448 620.616 562.841 617.155C568.197 612.948 572.884 610.555 576.824 609.406C578.802 608.828 580.595 608.555 582.247 608.506C583.898 608.468 585.418 608.632 586.846 609.013C590.356 609.951 593.441 612.201 595.925 615.575C598.4 618.937 600.182 623.395 600.884 628.31C601.599 633.226 601.244 638.583 599.588 643.755C597.931 648.926 594.993 653.913 590.464 658.224C586.508 661.973 582.704 663.973 579.13 664.812C575.555 665.64 572.132 665.335 568.808 664.12C565.494 662.905 562.306 660.73 559.505 657.858C556.704 654.992 554.295 651.439 552.53 647.564C548.977 639.804 548.028 630.839 550.928 623.498C552.377 619.814 554.764 616.49 558.388 613.76C562.012 611.035 566.9 608.915 573.336 607.825C574.268 607.667 574.884 606.79 574.753 605.869C574.617 604.953 573.772 604.288 572.841 604.403Z" fill="#B48D70"/>
<path d="M580.6 576.446C569.614 576.457 559.832 579.263 551.347 584.212C542.862 589.16 535.679 596.228 529.793 604.686C518.017 621.607 511.357 644.065 509.472 666.779C507.608 689.504 510.502 712.491 518.18 730.66C522.033 739.744 527.096 747.641 533.516 753.63C539.913 759.608 547.755 763.63 556.72 764.682C556.813 764.692 556.905 764.703 557.004 764.715C568.682 766.017 580.219 764.388 591.168 760.54C602.127 756.687 612.508 750.627 622.044 743.047C641.113 727.87 656.825 706.616 666.907 684.109C676.961 661.602 681.468 637.82 677.441 617.307C675.419 607.068 671.189 597.629 664.361 589.885C657.549 582.135 648.181 576.174 636.312 572.675C629.882 570.74 622.654 569.667 614.709 569.612C611.51 569.585 609.167 569.814 607.227 570.25C605.299 570.68 603.821 571.356 602.687 571.95C601.538 572.549 600.72 573.04 599.456 573.547C598.197 574.048 596.448 574.566 593.652 575.013C593.124 575.105 592.159 575.214 591.026 575.318C589.892 575.421 588.579 575.525 587.26 575.629C584.616 575.83 581.968 576.015 580.595 576.141C580.6 576.244 580.6 576.348 580.6 576.446ZM580.644 579.628C581.925 579.716 584.584 579.961 587.244 580.184C588.574 580.293 589.909 580.397 591.097 580.473C592.285 580.55 593.304 580.598 594.093 580.588C597.228 580.566 599.522 580.266 601.364 579.819C603.206 579.383 604.556 578.8 605.587 578.43C606.633 578.048 607.342 577.847 608.546 577.721C609.75 577.601 611.494 577.596 614.279 577.885C621.619 578.626 628.04 579.841 633.712 581.481C644.154 584.571 651.855 589.58 657.479 595.95C663.091 602.326 666.672 610.152 668.449 619.089C672.028 636.931 668.105 659.155 658.633 680.42C649.189 701.694 634.29 721.979 616.589 736.235C607.746 743.368 598.213 749.003 588.334 752.579C578.448 756.153 568.224 757.684 557.854 756.66C557.777 756.655 557.701 756.644 557.625 756.637C550.475 755.865 544.268 752.851 538.774 747.901C533.292 742.954 528.605 736.039 524.921 727.738C517.521 711.145 514.191 689.117 515.504 667.21C516.801 645.297 522.714 623.498 533.472 607.176C538.845 599.013 545.417 592.206 553.238 587.362C561.063 582.522 570.142 579.618 580.644 579.318C580.644 579.421 580.644 579.525 580.644 579.628Z" fill="#B48D70"/>
<path d="M502.254 599.88C499.709 603.275 497.78 606.926 495.889 610.691C495.006 612.474 494.074 614.266 493.235 616.147C492.385 618.027 491.584 619.972 490.804 621.978C489.251 626 487.796 630.267 486.303 634.768C483.317 643.765 480.161 653.684 475.741 664.305C464.624 691.036 450.755 717.728 443.305 741.494C439.594 753.39 437.452 764.594 438.275 774.906C438.689 780.055 439.872 784.988 442.03 789.554C444.177 794.121 447.305 798.301 451.447 801.909C458.695 808.235 468.919 812.807 482.603 815.652C496.308 818.497 513.562 819.625 535.208 818.84C563.126 817.8 593.127 806.687 621.019 789.734C648.909 772.758 674.696 749.891 693.993 724.932C707.395 707.585 717.689 689.243 723.286 671.03C728.877 652.845 729.755 634.654 723.88 618.109C720.953 609.852 716.337 602.059 709.945 595.018C703.552 587.972 695.394 581.678 685.378 576.272C665.334 565.465 637.901 558.152 601.541 555.367C589.949 554.473 577.748 555.007 565.094 558.244C554.941 560.822 544.516 565.198 533.998 571.956C523.475 578.713 512.864 587.825 502.161 599.798C502.194 599.825 502.221 599.852 502.254 599.88ZM507.137 604.457C518.042 593.373 528.51 585.215 538.516 579.247C548.527 573.285 558.085 569.487 567.339 567.204C578.876 564.381 589.976 563.983 600.773 564.898C636.206 567.912 662.299 575.22 680.527 585.204C689.651 590.19 696.811 595.831 702.304 601.929C707.793 608.032 711.623 614.599 714.077 621.575C718.965 635.493 718.359 651.28 713.22 667.929C708.092 684.556 698.419 701.902 685.612 718.453C667.193 742.289 642.337 764.486 615.64 780.944C588.947 797.419 560.407 808.099 534.81 809.292C513.693 810.291 497.099 809.363 484.368 806.884C471.622 804.416 462.826 800.41 456.967 795.477C453.611 792.65 451.169 789.505 449.409 785.984C447.654 782.463 446.586 778.54 446.123 774.18C445.185 765.467 446.771 755.014 450.03 743.493C456.526 720.432 469.551 693.269 480.237 666.12C484.537 655.193 487.578 645.112 490.466 636.125C491.911 631.635 493.311 627.422 494.804 623.52C495.551 621.569 496.319 619.694 497.126 617.902C497.943 616.114 498.75 614.386 499.714 612.801C501.758 609.433 504.281 606.648 507.044 604.37C507.077 604.403 507.11 604.43 507.137 604.457Z" fill="#B48D70"/>
<path d="M152.033 823.678C150.045 824.209 147.367 825.541 144.564 827.358C141.773 829.18 138.908 831.477 136.719 833.98C135.624 835.233 134.697 836.536 134.045 837.894C133.397 839.252 133.017 840.68 133.126 842.147C133.226 843.605 133.874 845.054 135.035 846.232C136.196 847.419 137.821 848.379 139.969 849.152C144.088 850.64 147.939 850.577 151.064 849.399C154.189 848.221 156.578 845.94 157.777 843.132C158.984 840.329 158.959 836.979 157.376 833.913C155.797 830.838 152.743 828.094 148.123 826.172C147.154 825.767 146.038 826.243 145.646 827.216C145.249 828.185 145.712 829.305 146.69 829.689C150.721 831.289 153.044 833.449 154.193 835.58C155.329 837.719 155.371 839.874 154.602 841.804C153.825 843.73 152.196 845.405 149.878 846.328C147.563 847.252 144.547 847.431 140.992 846.232C139.133 845.601 137.905 844.854 137.165 844.123C136.43 843.383 136.134 842.698 136.046 841.904C135.966 841.111 136.159 840.162 136.639 839.11C137.115 838.057 137.876 836.921 138.828 835.789C140.733 833.52 143.402 831.281 146.001 829.518C148.591 827.751 151.152 826.456 152.676 826.034C153.299 825.859 153.612 825.161 153.449 824.555C153.282 823.954 152.664 823.507 152.033 823.678Z" fill="#C7A994"/>
<path d="M147.241 806.442C138.602 804.019 129.93 806.154 122.49 810.887C115.041 815.62 108.758 822.926 104.669 831.006C100.596 839.085 98.6697 847.958 100.215 855.937C100.988 859.922 102.659 863.678 105.379 866.865C108.094 870.052 111.841 872.647 116.629 874.389C122.005 876.344 127.975 876.177 133.882 874.614C139.793 873.052 145.691 870.09 151.076 866.28C156.457 862.466 161.328 857.8 165.142 852.758C168.952 847.707 171.734 842.285 172.812 836.867C173.326 834.26 173.426 831.645 173.012 829.117C172.599 826.59 171.659 824.15 170.155 821.961C167.13 817.554 161.963 814.25 154.564 812.357C149.727 811.125 145.073 809.763 140.394 808.054C139.705 807.804 138.974 808.326 138.723 808.949C138.473 809.571 138.632 810.452 139.304 810.753C143.97 812.821 148.645 814.538 153.491 816.092C160.187 818.256 164.114 821.293 166.19 824.585C167.235 826.243 167.849 827.989 168.112 829.869C168.375 831.749 168.283 833.758 167.853 835.881C166.98 840.284 164.586 845.125 161.127 849.733C157.677 854.345 153.182 858.732 148.236 862.312C143.289 865.892 137.888 868.67 132.662 870.132C127.427 871.598 122.414 871.753 118.091 870.266C113.888 868.82 110.772 866.715 108.491 864.158C106.218 861.597 104.761 858.556 104.013 855.156C102.509 848.367 103.967 840.125 107.61 832.443C111.244 824.76 117.025 817.654 123.889 813.021C130.765 808.393 138.665 806.212 146.769 808.222C147.245 808.339 147.709 808.004 147.83 807.549C147.951 807.094 147.713 806.572 147.241 806.442Z" fill="#C7A994"/>
<path d="M91.9695 801.521C91.9194 801.546 91.8693 801.571 91.8192 801.592C91.6855 801.646 91.5475 801.684 91.418 801.738C91.2843 801.788 91.1675 801.864 91.0463 801.935C83.3848 806.363 76.567 809.124 70.6434 811.597C64.7281 814.074 59.686 816.255 55.6254 819.609C51.5607 822.96 48.5654 827.517 46.8401 834.431C45.1106 841.349 44.5885 850.636 45.3237 863.707C45.896 873.996 49.2589 881.432 54.4723 886.7C59.6817 891.968 66.6081 895.025 74.161 896.968C81.718 898.911 89.9393 899.75 97.8682 900.502C105.793 901.246 113.442 901.906 119.75 903.401C125.506 904.746 131.392 908.301 137.617 911.217C140.733 912.671 143.95 913.954 147.346 914.651C150.738 915.349 154.323 915.437 158.02 914.459C165.502 912.466 173.28 906.998 180.933 899.579C188.574 892.151 196.047 882.723 202.627 872.659C209.202 862.596 214.875 851.897 218.873 841.905C222.858 831.9 225.214 822.646 224.985 815.16C224.68 805.598 220.247 797.285 213.601 790.726C205.062 782.296 192.877 776.531 180.127 773.787C167.373 771.055 154.026 771.351 143.114 775.403C143.11 775.408 143.102 775.408 143.098 775.412C138.356 777.225 133.686 779.188 129.074 781.269C116.228 787.071 103.955 793.997 92.0362 801.371C92.0112 801.4 92.145 801.717 92.2828 802.047C92.1784 801.872 92.074 801.696 91.9695 801.521ZM92.2828 802.047C92.4834 802.336 92.6838 802.62 92.7214 802.615C105.312 796.508 117.958 790.555 130.787 785.225C135.394 783.311 140.04 781.498 144.731 779.823C144.723 779.823 144.719 779.827 144.71 779.827C154.577 776.389 167.081 776.214 179.016 778.871C190.955 781.515 202.293 786.992 209.871 794.503C215.786 800.368 219.42 807.332 219.721 815.344C219.968 821.564 217.879 830.383 214.077 840C210.288 849.633 204.828 860.118 198.495 869.981C192.162 879.849 184.956 889.102 177.704 896.295C170.469 903.497 163.15 908.594 156.896 910.294C153.934 911.109 151.081 911.092 148.165 910.536C145.253 909.981 142.304 908.865 139.313 907.516C133.318 904.826 127.219 901.175 120.606 899.683C113.86 898.184 106.094 897.641 98.1731 896.997C90.2568 896.362 82.1899 895.64 74.9336 893.877C67.669 892.118 61.2566 889.336 56.5068 884.657C51.7654 879.978 48.5612 873.369 47.8594 863.548C46.9487 850.623 47.3664 841.529 48.9288 834.937C50.4954 828.34 53.1482 824.255 56.862 821.088C60.5757 817.926 65.4342 815.716 71.3161 813.176C77.1938 810.636 84.074 807.758 91.7815 803.188C91.9026 803.113 92.028 803.05 92.1366 802.954C92.2452 802.866 92.3497 802.762 92.4583 802.67C92.5042 802.632 92.5502 802.599 92.5962 802.57C92.4917 802.394 92.3873 802.219 92.2828 802.047Z" fill="#C7A994"/>
<defs>
<clipPath id="clip0_180_36">
<rect width="834" height="834" fill="white" transform="translate(202 126.939) rotate(-36.8304)"/>
</clipPath>
</defs>
</svg>
